<svg width="17" height="18" viewBox="0 0 17 18" fill="none" xmlns="http://www.w3.org/2000/svg">
<path d="M8.66543 0.665009C4.06012 0.665009 0.330018 4.48936 0.330018 9.21104C0.329015 11.005 0.878988 12.7537 1.90192 14.2091C2.92485 15.6646 4.3688 16.7528 6.02894 17.3195C6.44571 17.3939 6.60242 17.1375 6.60242 16.9127C6.60242 16.7102 6.59158 16.0376 6.59158 15.3215C4.49773 15.7171 3.95592 14.7984 3.78922 14.3173C3.69503 14.0712 3.28909 13.3131 2.93484 13.1097C2.6431 12.9499 2.22633 12.5542 2.924 12.544C3.58083 12.5329 4.04928 13.1636 4.20599 13.42C4.95617 14.7121 6.15397 14.3489 6.63326 14.125C6.70661 13.5695 6.925 13.1961 7.16506 12.9824C5.31043 12.7688 3.37245 12.0312 3.37245 8.76238C3.37245 7.83257 3.69503 7.06428 4.22683 6.4652C4.14347 6.25155 3.85173 5.37558 4.31018 4.2005C4.31018 4.2005 5.00785 3.9766 6.60242 5.07733C7.28097 4.88424 7.98207 4.78705 8.68627 4.78847C9.39478 4.78847 10.1033 4.88419 10.7701 5.07647C12.3647 3.96549 13.0624 4.20136 13.0624 4.20136C13.5208 5.37644 13.2291 6.2524 13.1457 6.46606C13.6767 7.06428 14.0001 7.82231 14.0001 8.76238C14.0001 12.0423 12.0521 12.7688 10.1967 12.9824C10.4992 13.249 10.7601 13.7618 10.7601 14.5634C10.7601 15.706 10.7493 16.6247 10.7493 16.9136C10.7493 17.1375 10.906 17.4041 11.3228 17.3187C12.9772 16.7458 14.4148 15.6554 15.4332 14.201C16.4516 12.7466 16.9996 11.0014 17 9.21104C17 4.48936 13.2699 0.665009 8.6646 0.665009H8.66543Z" fill="white"/>
</svg>
