<svg width="18" height="18" viewBox="0 0 18 18" fill="none" xmlns="http://www.w3.org/2000/svg">
<path d="M5.49999 0.666656H12.5C15.1667 0.666656 17.3333 2.83332 17.3333 5.49999V12.5C17.3333 13.7819 16.8241 15.0112 15.9177 15.9177C15.0112 16.8241 13.7819 17.3333 12.5 17.3333H5.49999C2.83332 17.3333 0.666656 15.1667 0.666656 12.5V5.49999C0.666656 4.21811 1.17588 2.98873 2.08231 2.08231C2.98873 1.17588 4.21811 0.666656 5.49999 0.666656ZM5.33332 2.33332C4.53767 2.33332 3.77461 2.64939 3.212 3.212C2.64939 3.77461 2.33332 4.53767 2.33332 5.33332V12.6667C2.33332 14.325 3.67499 15.6667 5.33332 15.6667H12.6667C13.4623 15.6667 14.2254 15.3506 14.788 14.788C15.3506 14.2254 15.6667 13.4623 15.6667 12.6667V5.33332C15.6667 3.67499 14.325 2.33332 12.6667 2.33332H5.33332ZM13.375 3.58332C13.6513 3.58332 13.9162 3.69307 14.1116 3.88842C14.3069 4.08377 14.4167 4.34872 14.4167 4.62499C14.4167 4.90126 14.3069 5.16621 14.1116 5.36156C13.9162 5.55691 13.6513 5.66666 13.375 5.66666C13.0987 5.66666 12.8338 5.55691 12.6384 5.36156C12.4431 5.16621 12.3333 4.90126 12.3333 4.62499C12.3333 4.34872 12.4431 4.08377 12.6384 3.88842C12.8338 3.69307 13.0987 3.58332 13.375 3.58332ZM8.99999 4.83332C10.1051 4.83332 11.1649 5.27231 11.9463 6.05371C12.7277 6.83511 13.1667 7.89492 13.1667 8.99999C13.1667 10.1051 12.7277 11.1649 11.9463 11.9463C11.1649 12.7277 10.1051 13.1667 8.99999 13.1667C7.89492 13.1667 6.83511 12.7277 6.05371 11.9463C5.27231 11.1649 4.83332 10.1051 4.83332 8.99999C4.83332 7.89492 5.27231 6.83511 6.05371 6.05371C6.83511 5.27231 7.89492 4.83332 8.99999 4.83332ZM8.99999 6.49999C8.33695 6.49999 7.70106 6.76338 7.23222 7.23222C6.76338 7.70106 6.49999 8.33695 6.49999 8.99999C6.49999 9.66303 6.76338 10.2989 7.23222 10.7678C7.70106 11.2366 8.33695 11.5 8.99999 11.5C9.66303 11.5 10.2989 11.2366 10.7678 10.7678C11.2366 10.2989 11.5 9.66303 11.5 8.99999C11.5 8.33695 11.2366 7.70106 10.7678 7.23222C10.2989 6.76338 9.66303 6.49999 8.99999 6.49999Z" fill="white"/>
</svg>
