<svg width="18" height="15" viewBox="0 0 18 15" fill="none" xmlns="http://www.w3.org/2000/svg">
<path d="M17.7167 2.00001C17.075 2.29168 16.3833 2.48334 15.6667 2.57501C16.4 2.13334 16.9667 1.43334 17.2333 0.591677C16.5417 1.00834 15.775 1.30001 14.9667 1.46668C14.3083 0.75001 13.3833 0.333344 12.3333 0.333344C10.375 0.333344 8.77499 1.93334 8.77499 3.90834C8.77499 4.19168 8.80833 4.46668 8.86666 4.72501C5.89999 4.57501 3.25833 3.15001 1.49999 0.991677C1.19166 1.51668 1.01666 2.13334 1.01666 2.78334C1.01666 4.02501 1.64166 5.12501 2.60833 5.75001C2.01666 5.75001 1.46666 5.58334 0.983325 5.33334V5.35834C0.983325 7.09168 2.21666 8.54168 3.84999 8.86668C3.3256 9.01018 2.77507 9.03015 2.24166 8.92501C2.468 9.63541 2.91127 10.257 3.50917 10.7025C4.10707 11.1479 4.82953 11.3948 5.57499 11.4083C4.31135 12.4087 2.74499 12.9494 1.13333 12.9417C0.849992 12.9417 0.566659 12.925 0.283325 12.8917C1.86666 13.9083 3.74999 14.5 5.76666 14.5C12.3333 14.5 15.9417 9.05001 15.9417 4.32501C15.9417 4.16668 15.9417 4.01668 15.9333 3.85834C16.6333 3.35834 17.2333 2.72501 17.7167 2.00001Z" fill="white"/>
</svg>
